# xmcd
#
# Track frame offsets: 
#        182
#        15765
#        25825
#        41020
#        54862
#        73342
#        85880
#        99815
#        108342
#        124077
#        134680
#        143050
#        155790
#
# Disc length: 2404 seconds
#
# Revision: 5
# Processed by: cddbd v1.4PL0 Copyright (c) Steve Scherf et al.
# Submitted via: ExactAudioCopy v0.90b4
#
DISCID=a709620d
DTITLE=Supersuckers - Must've Been High
DYEAR=1997
DGENRE=Rock
TTITLE0=Must've Been High
TTITLE1=Dead In The Water
TTITLE2=Barricade
TTITLE3=Roamin' Round
TTITLE4=Hungover Together
TTITLE5=Non-Addictive Marijuana
TTITLE6=The Captain
TTITLE7=Blow You Away
TTITLE8=Roadworn and Weary
TTITLE9=Hangin' Out With Me
TTITLE10=Juicy Pureballs
TTITLE11=One Cigarette Away
TTITLE12=Hangliders
EXTD=Recorded 1997
EXTT0=
EXTT1=
EXTT2=
EXTT3=
EXTT4=
EXTT5=
EXTT6=
EXTT7=
EXTT8=
EXTT9=
EXTT10=
EXTT11=
EXTT12=Supersucker Drive-By Blues (ghost track)
PLAYORDER=
